<svg width="80" height="80" viewBox="0 0 80 80" fill="none" xmlns="http://www.w3.org/2000/svg">
<path d="M22.6521 12.0916C24.9595 12.0916 26.8277 10.2201 26.8277 7.916C26.8277 5.61189 24.9563 3.74042 22.6521 3.74042C20.348 3.74042 18.4766 5.60861 18.4766 7.916C18.4766 10.2234 20.348 12.0916 22.6521 12.0916Z" fill="#213147"/>
<path d="M49.7886 14.2679C49.7886 16.5753 51.6568 18.4468 53.9642 18.4468C56.2716 18.4468 58.1397 16.5753 58.1397 14.2679C58.1397 11.9605 56.2683 10.0923 53.9642 10.0923C51.66 10.0923 49.7886 11.9605 49.7886 14.2679Z" fill="#213147"/>
<path d="M9.33039 50.1009C9.33039 48.213 7.80308 46.6857 5.91521 46.6857C4.02735 46.6857 2.5 48.213 2.5 50.1009C2.5 51.9888 4.02735 53.5161 5.91521 53.5161C7.80308 53.5161 9.33039 51.9855 9.33039 50.1009Z" fill="#213147"/>
<path d="M21.6737 76.2596C24.948 76.2596 27.6028 73.6048 27.6028 70.3305C27.6028 67.0562 24.948 64.4014 21.6737 64.4014C18.3994 64.4014 15.7446 67.0562 15.7446 70.3305C15.7446 73.6048 18.3994 76.2596 21.6737 76.2596Z" fill="#213147"/>
<path d="M50.6354 56.1089C54.1456 56.1089 56.9971 53.2607 56.9971 49.7471C56.9971 46.2336 54.1489 43.3854 50.6354 43.3854C48.8098 43.3854 47.1645 44.1557 46.0042 45.388C44.7063 46.7679 43.0741 47.4725 41.1797 47.4725H27.981C26.5487 47.4725 25.3196 47.0792 24.1495 46.2533C23.4514 45.7583 22.5993 45.47 21.6783 45.47C19.3119 45.47 17.3945 47.3873 17.3945 49.7504C17.3945 52.1135 19.3119 54.0309 21.6783 54.0309C22.5993 54.0309 23.4514 53.7392 24.1495 53.2476C25.3196 52.4183 26.5487 52.0283 27.981 52.0283H41.183C43.0774 52.0283 44.7063 52.733 46.0075 54.1128C47.1677 55.3452 48.8131 56.1154 50.6387 56.1154L50.6354 56.1089Z" fill="#213147"/>
<path d="M37.5757 70.3294C37.5757 72.6368 39.4472 74.505 41.7513 74.505C44.0554 74.505 45.9269 72.6335 45.9269 70.3294C45.9269 68.0253 44.0587 66.1538 41.7513 66.1538C39.4439 66.1538 37.5757 68.022 37.5757 70.3294Z" fill="#213147"/>
<path d="M67.9134 53.9257C70.2208 53.9257 72.089 52.0542 72.089 49.7501C72.089 47.446 70.2175 45.5745 67.9134 45.5745C65.6093 45.5745 63.7378 47.446 63.7378 49.7501C63.7378 52.0542 65.6093 53.9257 67.9134 53.9257Z" fill="#213147"/>
<path d="M71.1383 22.7009C69.3128 22.7009 67.6674 23.4711 66.5072 24.7035C65.2093 26.0833 63.577 26.788 61.6826 26.788H46.9107C45.0163 26.788 43.3841 26.0833 42.0862 24.7035C40.9259 23.4711 39.2806 22.7009 37.455 22.7009C35.6294 22.7009 33.9841 23.4711 32.8239 24.7035C31.5259 26.0833 29.8937 26.788 27.9993 26.788H17.1408C15.7085 26.788 14.4794 26.398 13.3093 25.5687C12.6112 25.0738 11.7558 24.7821 10.8381 24.7821C8.47496 24.7821 6.55762 26.6995 6.55762 29.0626C6.55762 31.4257 8.47496 33.3464 10.8381 33.3464C11.7591 33.3464 12.6112 33.0547 13.3093 32.5598C14.4762 31.7306 15.7085 31.3405 17.1408 31.3405H27.9993C29.897 31.3405 31.5259 32.0452 32.8239 33.425C33.9841 34.6574 35.6294 35.4276 37.455 35.4276C39.2806 35.4276 40.9259 34.6607 42.0862 33.425C43.3841 32.0452 45.0163 31.3405 46.9107 31.3405H61.6826C63.5803 31.3405 65.2093 32.0452 66.5072 33.425C67.6674 34.6574 69.3128 35.4276 71.1383 35.4276C74.6519 35.4276 77.5 32.5794 77.5 29.0659C77.5 25.5524 74.6519 22.7042 71.1383 22.7042V22.7009Z" fill="#213147"/>
</svg>
